<svg width="512" height="512" viewBox="0 0 512 512" fill="none" xmlns="http://www.w3.org/2000/svg">
  <defs>
    <linearGradient id="bg" x1="64" y1="64" x2="448" y2="448" gradientUnits="userSpaceOnUse">
      <stop stop-color="#0F172A"/>
      <stop offset="0.55" stop-color="#0E7490"/>
      <stop offset="1" stop-color="#22D3EE"/>
    </linearGradient>
    <linearGradient id="bubbleA" x1="156" y1="136" x2="368" y2="332" gradientUnits="userSpaceOnUse">
      <stop stop-color="#A7F3D0"/>
      <stop offset="1" stop-color="#22C55E"/>
    </linearGradient>
    <linearGradient id="bubbleB" x1="132" y1="180" x2="332" y2="376" gradientUnits="userSpaceOnUse">
      <stop stop-color="#E0F2FE"/>
      <stop offset="1" stop-color="#38BDF8"/>
    </linearGradient>
    <filter id="shadow" x="74" y="74" width="364" height="364" filterUnits="userSpaceOnUse" color-interpolation-filters="sRGB">
      <feFlood flood-opacity="0" result="BackgroundImageFix"/>
      <feColorMatrix in="SourceAlpha" type="matrix" values="0 0 0 0 0 0 0 0 0 0 0 0 0 0 0 0 0 0 127 0" result="hardAlpha"/>
      <feOffset dy="14"/>
      <feGaussianBlur stdDeviation="18"/>
      <feComposite in2="hardAlpha" operator="out"/>
      <feColorMatrix type="matrix" values="0 0 0 0 0.02 0 0 0 0 0.13 0 0 0 0 0.2 0 0 0 0.34 0"/>
      <feBlend mode="normal" in2="BackgroundImageFix" result="effect1_dropShadow_1_1"/>
      <feBlend mode="normal" in="SourceGraphic" in2="effect1_dropShadow_1_1" result="shape"/>
    </filter>
  </defs>

  <rect x="64" y="64" width="384" height="384" rx="112" fill="url(#bg)"/>

  <g filter="url(#shadow)">
    <path d="M334 162H226C189.549 162 160 191.549 160 228V270C160 306.451 189.549 336 226 336H243L278 364V336H334C370.451 336 400 306.451 400 270V228C400 191.549 370.451 162 334 162Z" fill="url(#bubbleA)"/>
    <path d="M286 124H178C141.549 124 112 153.549 112 190V232C112 268.451 141.549 298 178 298H205V330L245 298H286C322.451 298 352 268.451 352 232V190C352 153.549 322.451 124 286 124Z" fill="url(#bubbleB)" fill-opacity="0.93"/>
  </g>

  <circle cx="208" cy="211" r="12" fill="#0F172A" fill-opacity="0.72"/>
  <circle cx="250" cy="211" r="12" fill="#0F172A" fill-opacity="0.72"/>
  <circle cx="292" cy="211" r="12" fill="#0F172A" fill-opacity="0.72"/>

  <path d="M319 343C319 365.644 300.644 384 278 384C255.356 384 237 365.644 237 343C237 320.356 255.356 302 278 302C300.644 302 319 320.356 319 343Z" fill="#0F172A" fill-opacity="0.14"/>
  <path d="M278 314L285.21 328.605L301.327 330.946L289.663 342.317L292.416 358.367L278 350.79L263.584 358.367L266.337 342.317L254.673 330.946L270.79 328.605L278 314Z" fill="#E2E8F0"/>
</svg>
